PathFileType	4	(X/Y/Z)	G:/My Drive/Project Folder - EPSRC SCI-FES/EPSRC-SCI-FES/Technical/Trial Tests/04122019 - Marker Volunteer01/Rosti Data/New Session 101.trc	
DataRate	CameraRate	NumFrames	NumMarkers	Units	OrigDataRate	OrigDataStartFrame	OrigNumFrames	
100.00	100.00	27	14	mm	100.00	127	337	
Frame#	Time	C7			PX			T8			IJ			SC			AC			AI			TS			AA			GH			LE			ME			US			RS			
		X1	Y1	Z1	X2	Y2	Z2	X3	Y3	Z3	X4	Y4	Z4	X5	Y5	Z5	X6	Y6	Z6	X7	Y7	Z7	X8	Y8	Z8	X9	Y9	Z9	X10	Y10	Z10	X11	Y11	Z11	X12	Y12	Z12	X13	Y13	Z13	X14	Y14	Z14	

127	1.260	666.82050	-16.49213	1540.22668	445.08569	-36.31108	1290.13806	746.59863	-7.05442	1325.52966	509.44943	-37.66357	1432.39099	513.34216	-12.83978	1440.89209	580.60315	130.81009	1486.41077	710.20972	70.27528	1464.14868	742.87750	75.45090	1346.15503	650.08606	183.20676	1444.52478	610.33783	193.81548	1458.73267	539.78156	283.78497	1185.45569	506.40533	201.21307	1147.77417	449.25177	371.82916	936.61389	394.24448	406.49362	983.26074 
128	1.270	666.82764	-16.51464	1540.21777	445.06622	-36.31746	1290.16089	746.58887	-7.06156	1325.52014	509.44724	-37.67700	1432.41370	513.33960	-12.85252	1440.90198	580.61462	130.78734	1486.42346	710.21661	70.25830	1464.14465	742.87201	75.45686	1346.15649	650.08923	183.17899	1444.52881	610.35071	193.78854	1458.73779	539.78766	283.77264	1185.47986	506.41953	201.22531	1147.79431	449.26917	371.83347	936.64087	394.23743	406.45029	983.27069 
129	1.280	666.82697	-16.53526	1540.20068	445.04462	-36.32547	1290.18066	746.58527	-7.07274	1325.51563	509.44150	-37.69201	1432.43457	513.33380	-12.86572	1440.90967	580.62506	130.76520	1486.43213	710.21869	70.23889	1464.13550	742.86743	75.45848	1346.15906	650.09326	183.15274	1444.53101	610.36127	193.75894	1458.74072	539.79169	283.75623	1185.50598	506.43143	201.23788	1147.81274	449.29135	371.84644	936.66675	394.24197	406.43439	983.28595 
130	1.290	666.82196	-16.55657	1540.18201	445.02173	-36.33773	1290.19727	746.58313	-7.09120	1325.51514	509.43167	-37.70924	1432.45325	513.32428	-12.88033	1440.91565	580.63397	130.74356	1486.43762	710.22021	70.21320	1464.12390	742.86328	75.45399	1346.16199	650.09930	183.12729	1444.53235	610.36969	193.72751	1458.74304	539.79718	283.73480	1185.53308	506.44107	201.25018	1147.82935	449.31613	371.86633	936.69135	394.26343	406.45508	983.30988 
131	1.300	666.81543	-16.58117	1540.16785	444.99835	-36.35634	1290.21130	746.57996	-7.11314	1325.51746	509.41782	-37.72982	1432.46973	513.31085	-12.89745	1440.92078	580.64001	130.72166	1486.44116	710.22290	70.17913	1464.11316	742.85846	75.44227	1346.16443	650.10559	183.10075	1444.53320	610.37640	193.69539	1458.74634	539.80725	283.70950	1185.55847	506.44852	201.26164	1147.84399	449.34128	371.89072	936.71448	394.29367	406.49347	983.34082 
132	1.310	666.80847	-16.61085	1540.16150	444.97516	-36.38169	1290.22375	746.57513	-7.13528	1325.52283	509.40051	-37.75494	1432.48401	513.29376	-12.91825	1440.92615	580.64154	130.69839	1486.44385	710.22357	70.14043	1464.10876	742.85168	75.42259	1346.16553	650.10980	183.07133	1444.53467	610.38196	193.66411	1458.75171	539.82324	283.68384	1185.57874	506.45380	201.27177	1147.85657	449.36581	371.91742	936.73633	394.32001	406.52820	983.37659 
133	1.320	666.80072	-16.64617	1540.16235	444.95230	-36.41228	1290.23486	746.56403	-7.15829	1325.52771	509.38098	-37.78515	1432.49683	513.27356	-12.94371	1440.93286	580.63739	130.67282	1486.44641	710.21753	70.10105	1464.11548	742.84174	75.39456	1346.16455	650.10980	183.03854	1444.53760	610.38666	193.63513	1458.76025	539.84387	283.66187	1185.59106	506.45688	201.28012	1147.86731	449.39011	371.94504	936.75702	394.33499	406.55063	983.41302 
134	1.330	666.79181	-16.68689	1540.16760	444.92978	-36.44576	1290.24451	746.54437	-7.18665	1325.52917	509.36041	-37.82007	1432.50854	513.25098	-12.97416	1440.94165	580.62738	130.64452	1486.44946	710.20471	70.06019	1464.12976	742.82788	75.35845	1346.16113	650.10535	183.00188	1444.54126	610.39063	193.60947	1458.77246	539.86633	283.64462	1185.59607	506.45767	201.28636	1147.87610	449.41550	371.97278	936.77649	394.34052	406.56439	983.44543 
135	1.340	666.78271	-16.73230	1540.17493	444.90759	-36.47977	1290.25256	746.51965	-7.22194	1325.52832	509.33978	-37.85851	1432.51965	513.22723	-13.00907	1440.95276	580.61255	130.61359	1486.45313	710.18860	70.01836	1464.14209	742.81006	75.31569	1346.15564	650.09747	182.96362	1444.54578	610.39386	193.58696	1458.78833	539.88702	283.63068	1185.59888	506.45602	201.29022	1147.88330	449.44336	371.99991	936.79486	394.34634	406.57788	983.47192 
136	1.350	666.77509	-16.78134	1540.18311	444.88586	-36.51220	1290.25891	746.49005	-7.26366	1325.52795	509.31958	-37.89872	1432.53003	513.20319	-13.04729	1440.96558	580.59467	130.58041	1486.45801	710.17261	69.97964	1464.14563	742.78888	75.26859	1346.14868	650.08734	182.92816	1444.55347	610.39618	193.56618	1458.80750	539.90448	283.61630	1185.60706	506.45166	201.29147	1147.88916	449.47501	372.02576	936.81207	394.36081	406.59705	983.49506 
137	1.360	666.76965	-16.83216	1540.19226	444.86469	-36.54173	1290.26428	746.45520	-7.31307	1325.52820	509.29990	-37.93893	1432.53906	513.17969	-13.08738	1440.97949	580.57574	130.54544	1486.46436	710.15741	69.94491	1464.13770	742.76563	75.21970	1346.14136	650.07617	182.89789	1444.56567	610.39655	193.54448	1458.82837	539.91931	283.59836	1185.62439	506.44446	201.28981	1147.89392	449.51111	372.04941	936.82794	394.38565	406.62177	983.51733 
138	1.370	666.76398	-16.88149	1540.20032	444.84415	-36.56852	1290.26917	746.41937	-7.36729	1325.52686	509.28055	-37.97784	1432.54614	513.15729	-13.12794	1440.99341	580.55713	130.50931	1486.47229	710.14130	69.90983	1464.12537	742.74164	75.17121	1346.13477	650.06537	182.87329	1444.58423	610.39307	193.51880	1458.84875	539.93176	283.57639	1185.64917	506.43423	201.28491	1147.89771	449.55136	372.06973	936.84198	394.41855	406.64948	983.53821 
139	1.380	666.75336	-16.92530	1540.20325	444.82388	-36.59340	1290.27405	746.38446	-7.42180	1325.52478	509.26129	-38.01490	1432.55066	513.13586	-13.16744	1441.00610	580.53992	130.47287	1486.48120	710.12427	69.86910	1464.12012	742.71820	75.12490	1346.12988	650.05707	182.85254	1444.60913	610.38470	193.48766	1458.86658	539.94153	283.55478	1185.67505	506.42102	201.27641	1147.90063	449.59500	372.08575	936.85327	394.45975	406.68140	983.55804 
140	1.390	666.73383	-16.96126	1540.19751	444.80328	-36.61671	1290.27856	746.35205	-7.46882	1325.52637	509.24207	-38.05013	1432.55237	513.11505	-13.20419	1441.01611	580.52448	130.43724	1486.48975	710.10809	69.82381	1464.12708	742.69635	75.08196	1346.12720	650.05286	182.83409	1444.63708	610.37299	193.45244	1458.88049	539.94928	283.53680	1185.69482	506.40506	201.26399	1147.90271	449.64105	372.09714	936.86072	394.51086	406.72342	983.57947 
141	1.400	666.70575	-16.99053	1540.18347	444.78180	-36.63832	1290.28125	746.32922	-7.50174	1325.53418	509.22284	-38.08393	1432.55103	513.09430	-13.23658	1441.02258	580.51093	130.40359	1486.49646	710.09430	69.77967	1464.14075	742.67682	75.04293	1346.12683	650.05176	182.81735	1444.66211	610.36017	193.41576	1458.88965	539.95679	283.52115	1185.70496	506.38666	201.24736	1147.90369	449.68817	372.10391	936.86340	394.56744	406.77094	983.59784 
142	1.410	666.67206	-17.01680	1540.16516	444.75980	-36.65818	1290.28052	746.31818	-7.52687	1325.54688	509.20358	-38.11675	1432.54675	513.07300	-13.26356	1441.02478	580.49860	130.37285	1486.49963	710.08118	69.74261	1464.14954	742.65985	75.00765	1346.12830	650.05243	182.80147	1444.67920	610.34747	193.38008	1458.89368	539.96625	283.50345	1185.70386	506.36639	201.22638	1147.90369	449.73495	372.10632	936.86047	394.61700	406.79321	983.59668 
143	1.420	666.63678	-17.04428	1540.14819	444.73795	-36.67688	1290.27625	746.31372	-7.55496	1325.56189	509.18427	-38.14873	1432.54004	513.05060	-13.28506	1441.02283	580.48645	130.34529	1486.49878	710.06573	69.71444	1464.14758	742.64514	74.97546	1346.13086	650.05463	182.78560	1444.68848	610.33569	193.34776	1458.89294	539.97882	283.47946	1185.69165	506.34509	201.20110	1147.90247	449.78036	372.10452	936.85156	394.65112	406.76532	983.56433 
144	1.430	666.60297	-17.07558	1540.13708	444.71698	-36.69512	1290.26941	746.30499	-7.58541	1325.57324	509.16486	-38.17968	1432.53174	513.02698	-13.30194	1441.01807	580.47339	130.32053	1486.49414	710.04779	69.69185	1464.13928	742.63251	74.94536	1346.13391	650.05542	182.76685	1444.69116	610.32623	193.32169	1458.88940	539.99500	283.44888	1185.67175	506.32373	201.17178	1147.90015	449.82419	372.09851	936.83667	394.67941	406.71552	983.51611 
145	1.440	666.57214	-17.11088	1540.13391	444.69702	-36.71340	1290.26208	746.28540	-7.61049	1325.57458	509.14526	-38.20926	1432.52295	513.00189	-13.31558	1441.01184	580.45844	130.29767	1486.48669	710.02924	69.67184	1464.13318	742.62134	74.91618	1346.13733	650.05084	182.74271	1444.68921	610.32123	193.30403	1458.88599	540.01489	283.41660	1185.64966	506.30334	201.13889	1147.89685	449.86685	372.08795	936.81653	394.71127	406.67609	983.47272 
146	1.450	666.54456	-17.14816	1540.13770	444.67773	-36.73201	1290.25635	746.25879	-7.62597	1325.57007	509.12537	-38.23725	1432.51440	512.97534	-13.32740	1441.00562	580.44086	130.27573	1486.47803	710.00977	69.65076	1464.13489	742.61096	74.88678	1346.14087	650.03931	182.71364	1444.68457	610.32208	193.29561	1458.88550	540.03735	283.38681	1185.63013	506.28497	201.10295	1147.89270	449.90906	372.07217	936.79211	394.74667	406.64978	983.43964 
147	1.460	666.51971	-17.18422	1540.14612	444.65897	-36.75080	1290.25281	746.23663	-7.63550	1325.57202	509.10507	-38.26367	1432.50635	512.94757	-13.33850	1441.00024	580.42059	130.25386	1486.46899	709.98517	69.62454	1464.14343	742.60040	74.85615	1346.14465	650.02081	182.68208	1444.67676	610.32758	193.29437	1458.88843	540.05988	283.35956	1185.61353	506.26947	201.06471	1147.88782	449.95105	372.05069	936.76459	394.78372	406.62167	983.41003 
148	1.470	666.49829	-17.21640	1540.15710	444.64050	-36.76945	1290.25037	746.22040	-7.64694	1325.58496	509.08420	-38.28857	1432.49841	512.91895	-13.34951	1440.99597	580.39813	130.23169	1486.46008	709.95386	69.59592	1464.15283	742.58856	74.82348	1346.14880	649.99731	182.65059	1444.66479	610.33362	193.29584	1458.89294	540.08008	283.33167	1185.59717	506.25760	201.02496	1147.88220	449.99261	372.02347	936.73529	394.82144	406.58502	983.37622 
149	1.480	666.48114	-17.24346	1540.16931	444.62213	-36.78762	1290.24792	746.20520	-7.66489	1325.60522	509.06244	-38.31177	1432.48987	512.89001	-13.36062	1440.99243	580.37457	130.20935	1486.45117	709.92352	69.57037	1464.15625	742.57446	74.78805	1346.15320	649.97211	182.62083	1444.64954	610.33655	193.29599	1458.89697	540.09753	283.30014	1185.57837	506.25015	200.98459	1147.87561	450.03348	371.99115	936.70544	394.86310	406.55560	983.33746 
150	1.490	666.46844	-17.26582	1540.18237	444.60358	-36.80476	1290.24426	746.18921	-7.68750	1325.62451	509.03967	-38.33292	1432.47998	512.86133	-13.37173	1440.98950	580.35144	130.18747	1486.44238	709.90033	69.54910	1464.15125	742.55737	74.74931	1346.15808	649.94751	182.59175	1444.63281	610.33533	193.29288	1458.89966	540.11194	283.26593	1185.55701	506.24817	200.94452	1147.86804	450.07410	371.95486	936.67590	394.92126	406.56461	983.30554 
151	1.500	666.45831	-17.28475	1540.19519	444.58496	-36.82040	1290.23901	746.17065	-7.71078	1325.63379	509.01581	-38.35180	1432.46887	512.83307	-13.38247	1440.98694	580.32996	130.16699	1486.43408	709.88269	69.52921	1464.14258	742.53723	74.70701	1346.16333	649.92340	182.56120	1444.61536	610.33105	193.28644	1458.90100	540.12262	283.23343	1185.53516	506.25275	200.90555	1147.85889	450.11569	371.91586	936.64734	395.00635	406.63010	983.29535 
152	1.510	666.44617	-17.30156	1540.20544	444.56641	-36.83448	1290.23279	746.14789	-7.73248	1325.63318	508.99112	-38.36852	1432.45679	512.80536	-13.39240	1440.98438	580.31110	130.14870	1486.42676	709.86511	69.50940	1464.13757	742.51428	74.66149	1346.16882	649.90070	182.53299	1444.60242	610.32538	193.27786	1458.90186	540.12891	283.20535	1185.51599	506.26505	200.86835	1147.84778	450.15967	371.87521	936.61957	395.10760	406.72345	983.30090 
153	1.520	666.42688	-17.31688	1540.20959	444.54800	-36.84690	1290.22559	746.12122	-7.75439	1325.63098	508.96603	-38.38375	1432.44495	512.77814	-13.40139	1440.98181	580.29541	130.13306	1486.42041	709.84473	69.49081	1464.14001	742.48920	74.61394	1346.17419	649.88086	182.51155	1444.59753	610.32031	193.26918	1458.90222	540.13086	283.18094	1185.49963	506.28601	200.83327	1147.83411	450.20636	371.83292	936.59180	395.19928	406.78394	983.29669 
